<?xml version="1.0" standalone="no"?>
<!DOCTYPE svg PUBLIC "-//W3C//DTD SVG 20010904//EN"
 "http://www.w3.org/TR/2001/REC-SVG-20010904/DTD/svg10.dtd">
<svg version="1.0" xmlns="http://www.w3.org/2000/svg"
 width="256.000000pt" height="256.000000pt" viewBox="0 0 256.000000 256.000000"
 preserveAspectRatio="xMidYMid meet">
<metadata>
Created by potrace 1.14, written by Peter Selinger 2001-2017
</metadata>
<g transform="translate(0.000000,256.000000) scale(0.100000,-0.100000)"
fill="#000000" stroke="none">
<path d="M185 2548 c-79 -28 -150 -100 -174 -178 -8 -25 -10 -353 -8 -1105 l2
-1070 24 -48 c28 -54 69 -94 126 -122 39 -19 68 -20 1110 -22 778 -2 1080 0
1107 9 57 17 128 77 157 133 l26 50 3 1071 c2 1213 8 1127 -78 1214 -86 85 -3
80 -1204 79 -717 0 -1071 -4 -1091 -11z m657 -177 c4 0 6 -148 5 -328 l-2
-328 -330 0 -330 0 0 302 0 302 24 25 c13 14 33 26 45 28 19 3 572 2 588 -1z
m798 -328 l0 -331 -359 0 -359 1 1 326 c0 179 1 328 2 331 2 3 163 5 359 5
l356 0 0 -332z m707 304 l28 -27 0 -292 c1 -161 0 -298 -2 -304 -3 -8 -101
-11 -333 -12 l-328 0 0 326 c0 180 2 329 3 332 2 3 139 5 304 5 l301 0 27 -28z
m-1499 -1067 l-1 -357 -328 0 c-181 0 -330 3 -330 6 -3 13 -5 696 -2 702 1 3
150 6 332 6 l329 0 0 -357z m1527 1 l0 -356 -331 -1 -332 -1 0 351 c0 193 1
354 4 357 2 3 151 6 331 6 l328 1 0 -357z m-987 146 c3 -25 -90 -289 -110
-312 -5 -5 -22 -10 -38 -11 -29 -1 -29 1 -13 44 3 9 7 19 8 22 0 3 20 54 43
113 23 59 42 109 42 111 0 2 -20 3 -45 3 -42 0 -45 -2 -45 -27 0 -23 -4 -27
-30 -28 -30 -1 -30 0 -30 52 0 29 2 55 4 57 3 2 51 4 108 4 l103 0 3 -28z
m-540 -908 c0 -239 -3 -329 -11 -331 -7 -3 -144 -4 -305 -3 l-292 0 -27 28
-27 27 -1 304 0 304 331 -1 332 0 0 -328z m790 -2 l-3 -332 -356 0 -356 0 0
331 -1 331 359 1 359 1 -2 -332z m737 25 l-1 -302 -27 -27 -27 -28 -302 0
-303 0 -1 332 -2 331 332 -1 331 -2 0 -303z"/>
<path d="M1220 2228 c-19 -13 -37 -35 -41 -50 -7 -27 -5 -28 27 -28 23 0 34 5
34 14 0 18 33 30 60 21 31 -10 27 -62 -5 -77 -35 -16 -32 -49 5 -70 45 -26 38
-74 -13 -83 -19 -4 -31 1 -45 20 -13 16 -30 25 -47 25 -25 0 -27 -3 -21 -27 8
-33 49 -72 77 -74 67 -5 79 -1 110 32 35 37 38 84 9 122 -19 23 -19 27 -4 41
19 19 21 74 5 105 -14 25 -61 51 -94 51 -13 0 -39 -10 -57 -22z"/>
<path d="M2019 2232 c-84 -42 -62 -188 30 -195 27 -2 27 -6 -9 -77 -21 -41
-26 -60 -18 -61 51 -6 52 -5 105 100 42 85 51 112 49 148 -5 80 -82 122 -157
85z m78 -50 c12 -8 18 -31 15 -64 -2 -22 -47 -34 -67 -18 -18 15 -20 61 -3 78
14 14 37 15 55 4z"/>
<path d="M500 1452 c-23 -5 -132 -234 -128 -268 3 -29 3 -29 74 -29 66 0 70
-1 66 -21 -4 -23 13 -34 44 -30 13 2 19 11 18 29 -1 15 2 24 6 22 12 -8 32 22
28 42 -2 10 -7 16 -12 15 -14 -6 -26 22 -21 47 4 20 0 22 -28 19 -27 -3 -33
-8 -37 -33 -4 -24 -10 -30 -32 -32 -40 -3 -36 13 27 132 30 58 55 106 55 108
0 4 -40 4 -60 -1z"/>
<path d="M458 644 c-27 -25 -38 -44 -38 -65 0 -16 2 -29 4 -29 1 0 15 11 31
26 15 14 29 23 32 20 3 -2 5 -64 4 -136 l0 -131 32 3 32 3 1 160 c0 88 -2 166
-4 173 -8 24 -56 12 -94 -24z"/>
<path d="M1995 666 c-32 -14 -61 -56 -52 -78 5 -15 50 -17 55 -2 15 39 68 47
81 12 5 -14 4 -31 -2 -43 -9 -18 -112 -142 -128 -155 -4 -3 -8 -21 -10 -40
l-4 -35 108 3 108 3 -3 27 c-3 26 -6 27 -58 27 -30 0 -56 5 -56 10 -1 6 19 34
45 64 25 29 51 63 58 75 27 47 8 107 -42 131 -40 18 -60 18 -100 1z"/>
</g>
</svg>
